<?xml version="1.0" encoding="UTF-8" standalone="no"?><!DOCTYPE svg PUBLIC "-//W3C//DTD SVG 1.1//EN" "http://www.w3.org/Graphics/SVG/1.1/DTD/svg11.dtd"><svg width="100%" height="100%" viewBox="0 0 10287 2065" version="1.1" xmlns="http://www.w3.org/2000/svg" xmlns:xlink="http://www.w3.org/1999/xlink" xml:space="preserve" xmlns:serif="http://www.serif.com/" style="fill-rule:evenodd;clip-rule:evenodd;stroke-linejoin:round;stroke-miterlimit:2;"><rect id="画板1" x="0" y="0" width="10286.912" height="2064.275" style="fill:none;"/><clipPath id="_clip1"><rect x="0" y="0" width="10286.912" height="2064.275"/></clipPath><g clip-path="url(#_clip1)"><path d="M1681.25,465.398l0,262.077l-839.937,481.191l-839.937,-481.191l0,-262.077l839.937,-464.006l839.937,464.006Z" style="fill:#1b1b1b;"/><path d="M1681.25,890.748l0,262.077l-839.937,481.191l-839.937,-481.191l0,-262.077l839.937,472.599l839.937,-472.599Z" style="fill:#1b1b1b;"/><path d="M1681.25,1322.397l0,262.077l-839.937,481.191l-839.937,-481.191l0,-262.077l839.937,472.599l839.937,-472.599Z" style="fill:#1b1b1b;"/><g transform="matrix(1666.666667,0,0,1666.666667,10300.46119,1604.476386)"></g><text x="2537.603px" y="1604.476px" style="font-family:'JavaneseText', 'Javanese Text';font-size:1666.667px;fill:#1b1b1b;">Hypercraft</text></g></svg>